<svg xmlns="http://www.w3.org/2000/svg" xmlns:xlink="http://www.w3.org/1999/xlink" id="Layer_1" x="0px" y="0px" viewBox="0 0 443 352" style="enable-background:new 0 0 443 352;" xml:space="preserve">
<style type="text/css">
	.st0{fill-rule:evenodd;clip-rule:evenodd;fill:#7E7E7D;}
	.st1{fill-rule:evenodd;clip-rule:evenodd;fill:#F16834;}
</style>
<g>
	<path class="st0" d="M352.8,109.5c1.7,1.2,1.2,3,1.2,4.6c0,41.2,0,82.4,0,123.7c0,2.3-0.5,4-2.5,5.5   c-43.1,32.3-86.2,64.6-129.2,97.1c-3.1,2.4-4.9,2.1-7.9-0.2c-40.5-30.8-81-61.5-121.7-92.1c-3.1-2.3-4.3-4.7-4.3-8.6   c0.2-41.7,0.1-83.4,0.2-125.1c0-1.7-1-3.7,1-5c4.3,3.4,9.3,5.2,14.3,7.3c9.1,3.8,17.7,8.5,27.4,10.8c0,33,0.1,66,0,98.9   c0,3.3,1,5.4,3.7,7.4c26.9,19.6,53.7,39.2,80.5,59.1c3.5,2.6,5.6,2.3,8.9-0.2c27.4-20.8,55-41.4,82.6-62c2.5-1.8,3-3.9,3-6.7   c0-32.2,0-64.3,0-96.5c6.8-1.2,12.9-4.5,19.2-7.2C337.1,116.8,345.4,114.1,352.8,109.5z"></path>
	<path class="st1" d="M131.3,127.3c-9.6-2.3-18.3-7-27.4-10.8c-5-2.1-10-3.9-14.3-7.3c5.5-6.2,12.6-10.4,19.1-15.3   c30.4-23.1,61-46,91.5-69c5.9-4.5,11.9-8.8,17.8-13.3c1.9-1.5,3.2-1.5,5.2,0c20,15.1,40,30,60,45c20.8,15.6,41.6,31.2,62.3,46.9   c2.5,1.9,4.8,4,7.2,6c-7.4,4.7-15.7,7.3-23.6,10.7c-6.3,2.7-12.4,6-19.2,7.2c-8-5.8-15.9-11.7-23.9-17.5   c-11.1-8.2-22.1-16.6-33.2-24.8c-0.9-0.7-1.9-1.8-3.1-1.3c-1.6,0.6-1,2.3-1,3.5c-0.1,1.5,0,3,0,4.5c0,37.4,0,74.9,0.1,112.3   c0,3.9-1.1,6.3-4.5,8.4c-7.3,4.5-14.2,9.5-21.1,14.6c-2.1,1.5-3.4,1.7-5.5,0.1c-7.2-5.3-14.4-10.4-21.9-15.3   c-2.8-1.9-3.7-4-3.7-7.3c0.1-32.8,0.1-65.6,0.1-98.5c0-6.3,0-12.5,0-18.8c0-1.3,0.7-3-0.6-3.7c-1.6-0.9-2.6,0.9-3.7,1.8   c-3.9,2.8-7.7,5.7-11.5,8.5C161.4,105,146.4,116.2,131.3,127.3z"></path>
</g>
</svg>